<svg width="420" height="150" viewBox="0 0 420 150" fill="none" xmlns="http://www.w3.org/2000/svg" role="img" aria-labelledby="title desc">
  <title id="title">Alex by AIM</title>
  <desc id="desc">A premium gradient Alex by AIM logo mark.</desc>
  <defs>
    <linearGradient id="alexMark" x1="21" y1="125" x2="122" y2="22" gradientUnits="userSpaceOnUse">
      <stop stop-color="#8B5CF6"/>
      <stop offset="0.45" stop-color="#6D5DFF"/>
      <stop offset="1" stop-color="#28D7FF"/>
    </linearGradient>
    <linearGradient id="alexMarkSoft" x1="55" y1="28" x2="111" y2="116" gradientUnits="userSpaceOnUse">
      <stop stop-color="#A78BFA"/>
      <stop offset="1" stop-color="#38BDF8"/>
    </linearGradient>
    <filter id="glow" x="-30" y="-30" width="190" height="190" filterUnits="userSpaceOnUse" color-interpolation-filters="sRGB">
      <feGaussianBlur stdDeviation="8" result="blur"/>
      <feColorMatrix in="blur" type="matrix" values="0 0 0 0 0.45 0 0 0 0 0.25 0 0 0 0 1 0 0 0 0.45 0"/>
      <feBlend in2="SourceGraphic" mode="screen"/>
    </filter>
  </defs>
  <g filter="url(#glow)">
    <path d="M65.7 23.5C69.5 16.8 79.2 16.8 83 23.5L131.4 108.3C135.2 115 130.4 123.3 122.7 123.3H107.3C103.7 123.3 100.4 121.4 98.6 118.3L74.3 75.8L50 118.3C48.2 121.4 44.9 123.3 41.3 123.3H25.9C18.2 123.3 13.4 115 17.2 108.3L65.7 23.5Z" fill="url(#alexMark)"/>
    <path d="M74.2 52.7L103.7 104.1C106.2 108.4 103.1 113.8 98.1 113.8H91.1C88.8 113.8 86.7 112.6 85.6 110.6L74.2 90.7L62.8 110.6C61.7 112.6 59.6 113.8 57.3 113.8H50.3C45.3 113.8 42.2 108.4 44.7 104.1L74.2 52.7Z" fill="#070A14" fill-opacity="0.88"/>
    <path d="M74.2 55.4L101.2 102.4C102.6 104.8 100.9 107.8 98.1 107.8H91.3L74.2 78L57.1 107.8H50.3C47.5 107.8 45.8 104.8 47.2 102.4L74.2 55.4Z" fill="url(#alexMarkSoft)"/>
  </g>
  <text x="157" y="71" fill="#F8FAFC" font-family="Inter, ui-sans-serif, system-ui, -apple-system, BlinkMacSystemFont, Segoe UI, sans-serif" font-size="46" font-weight="760" letter-spacing="12">ALEX</text>
  <text x="160" y="111" fill="#F8FAFC" fill-opacity="0.9" font-family="Inter, ui-sans-serif, system-ui, -apple-system, BlinkMacSystemFont, Segoe UI, sans-serif" font-size="19" font-weight="650" letter-spacing="9">BY AIM</text>
</svg>
